<svg width="24" height="24" viewBox="0 0 24 24" fill="none" xmlns="http://www.w3.org/2000/svg">
<path d="M12.8421 5.45796C11.9487 5.16087 10.9932 5 10 5C5.02944 5 1 9.02944 1 14C1 18.9706 5.02944 23 10 23C14.9706 23 19 18.9706 19 14C19 13.0068 18.8391 12.0513 18.542 11.1579" stroke="url(#paint0_linear)" stroke-width="1.21542" stroke-linecap="round"/>
<circle cx="19" cy="5" r="4.39229" stroke="url(#paint1_linear)" stroke-width="1.21542"/>
<path d="M10 10V14.5H14.5" stroke="url(#paint2_linear)" stroke-width="1.21542" stroke-linecap="round"/>
<path d="M19.4231 7.73558H18.5577V7.07212C18.1202 6.99038 17.7788 6.76923 17.5337 6.40865L18.0096 5.82452C18.3077 6.19471 18.6202 6.37981 18.9471 6.37981C19.1154 6.37981 19.2548 6.31731 19.3654 6.19231C19.4808 6.06731 19.5385 5.90865 19.5385 5.71635C19.5385 5.50481 19.3774 5.33413 19.0553 5.20433C18.5601 4.9976 18.2644 4.86298 18.1683 4.80048C17.8462 4.5649 17.6875 4.21154 17.6923 3.74038C17.6971 3.46154 17.7813 3.21394 17.9447 2.9976C18.1034 2.79567 18.3077 2.65144 18.5577 2.5649V1.90144H19.4231V2.54327C19.6731 2.61058 19.9567 2.77404 20.274 3.03365L19.8125 3.60337C19.5144 3.33894 19.2524 3.20673 19.0264 3.20673C18.887 3.20673 18.774 3.25721 18.6875 3.35817C18.601 3.45913 18.5577 3.60096 18.5577 3.78365C18.5577 3.96635 18.7163 4.11058 19.0337 4.21635C19.4856 4.37019 19.774 4.49519 19.899 4.59135C20.2163 4.83173 20.375 5.20433 20.375 5.70913C20.375 6.41106 20.0577 6.85817 19.4231 7.05048V7.73558Z" fill="url(#paint3_linear)"/>
<defs>
<linearGradient id="paint0_linear" x1="15.087" y1="5" x2="4.91304" y2="21.8261" gradientUnits="userSpaceOnUse">
<stop stop-color="#16A1D7"/>
<stop offset="1" stop-color="#2163B3"/>
</linearGradient>
<linearGradient id="paint1_linear" x1="21.8261" y1="-1.42533e-07" x2="16.1739" y2="9.34783" gradientUnits="userSpaceOnUse">
<stop stop-color="#16A1D7"/>
<stop offset="1" stop-color="#2163B3"/>
</linearGradient>
<linearGradient id="paint2_linear" x1="13.5217" y1="10" x2="10.9783" y2="14.2065" gradientUnits="userSpaceOnUse">
<stop stop-color="#16A1D7"/>
<stop offset="1" stop-color="#2163B3"/>
</linearGradient>
<linearGradient id="paint3_linear" x1="20.3712" y1="1" x2="15.2992" y2="5.51682" gradientUnits="userSpaceOnUse">
<stop stop-color="#16A1D7"/>
<stop offset="1" stop-color="#2163B3"/>
</linearGradient>
</defs>
</svg>
