<svg width="28" height="25" viewBox="0 0 28 25" fill="none" xmlns="http://www.w3.org/2000/svg">
<path d="M3.00615 12.1725C-0.978082 7.48117 1.81003 4.47308 4.16969 3.28803C4.55217 3.09594 5.00701 3.2219 5.2795 3.55195L8.79153 7.80578C9.11857 8.2019 9.0923 8.78138 8.73075 9.14628L7.96075 9.92341C7.70692 10.1796 7.60787 10.5547 7.72216 10.8967C9.18932 15.2881 12.5607 17.1238 14.4312 17.5937C14.6795 17.6561 14.939 17.5964 15.1514 17.4534L16.9888 16.2172C17.3263 15.9901 17.7678 15.9901 18.1053 16.2172L22.2734 19.0217C22.6893 19.3015 22.8338 19.8461 22.6112 20.2953L22.0912 21.3451C19.91 25.0141 16.9412 24.0968 15.7294 23.1796C13.306 21.6508 7.36852 17.3092 3.00615 12.1725Z" stroke="url(#paint0_linear)"/>
<path d="M15.4675 8.30923C17.2941 7.53159 19.8557 9.28845 19.6827 12.1245" stroke="black" stroke-linecap="round"/>
<path d="M15.4675 8.30923C17.2941 7.53159 19.8557 9.28845 19.6827 12.1245" stroke="url(#paint1_linear)" stroke-linecap="round"/>
<path d="M13.8832 5.11223C17.5294 3.67137 22.6651 6.9791 22.3416 12.2849" stroke="black" stroke-linecap="round"/>
<path d="M13.8832 5.11223C17.5294 3.67137 22.6651 6.9791 22.3416 12.2849" stroke="url(#paint2_linear)" stroke-linecap="round"/>
<path d="M12.3136 1.68689C18.1373 -0.452779 26.3727 4.54124 25.8874 12.5" stroke="black" stroke-linecap="round"/>
<path d="M12.3136 1.68689C18.1373 -0.452779 26.3727 4.54124 25.8874 12.5" stroke="url(#paint3_linear)" stroke-linecap="round"/>
<defs>
<linearGradient id="paint0_linear" x1="18.4348" y1="3" x2="9.34303" y2="20.9004" gradientUnits="userSpaceOnUse">
<stop stop-color="#16A1D7"/>
<stop offset="1" stop-color="#2163B3"/>
</linearGradient>
<linearGradient id="paint1_linear" x1="18.9943" y1="8.27859" x2="17.2569" y2="11.5519" gradientUnits="userSpaceOnUse">
<stop stop-color="#16A1D7"/>
<stop offset="1" stop-color="#2163B3"/>
</linearGradient>
<linearGradient id="paint2_linear" x1="20.9348" y1="5.08257" x2="17.8025" y2="11.352" gradientUnits="userSpaceOnUse">
<stop stop-color="#16A1D7"/>
<stop offset="1" stop-color="#2163B3"/>
</linearGradient>
<linearGradient id="paint3_linear" x1="23.5933" y1="1.68523" x2="19.0676" y2="11.2834" gradientUnits="userSpaceOnUse">
<stop stop-color="#16A1D7"/>
<stop offset="1" stop-color="#2163B3"/>
</linearGradient>
</defs>
</svg>
