<svg width="22" height="25" viewBox="0 0 22 25" fill="none" xmlns="http://www.w3.org/2000/svg">
<mask id="path-1-inside-1" fill="white">
<path d="M14 0H8C3.58172 0 0 3.58172 0 8V13.5278C0 14.1728 0.0898881 14.8146 0.26707 15.4347C0.738865 17.086 1.80606 18.5038 3.26238 19.414L5 20.5V22.5305C5 23.4291 6.09301 23.8717 6.71824 23.2263L8.875 21H11.5H14C18.4183 21 22 17.4183 22 13V8C22 3.58172 18.4183 0 14 0Z"/>
</mask>
<path d="M8.875 21V20H8.45146L8.15676 20.3042L8.875 21ZM5 20.5H6V19.9458L5.53 19.652L5 20.5ZM3.26238 19.414L3.79238 18.566H3.79238L3.26238 19.414ZM6.71824 23.2263L6 22.5305H6L6.71824 23.2263ZM0.26707 15.4347L1.22859 15.16L0.26707 15.4347ZM8 1H14V-1H8V1ZM21 8V13H23V8H21ZM14 20H11.5V22H14V20ZM11.5 20H8.875V22H11.5V20ZM5.53 19.652L3.79238 18.566L2.73238 20.262L4.47 21.348L5.53 19.652ZM4 20.5V22.5305H6V20.5H4ZM7.43648 23.9221L9.59324 21.6958L8.15676 20.3042L6 22.5305L7.43648 23.9221ZM1 13.5278V8H-1V13.5278H1ZM1.22859 15.16C1.07694 14.6292 1 14.0799 1 13.5278H-1C-1 14.2657 -0.897162 15 -0.694453 15.7095L1.22859 15.16ZM3.79238 18.566C2.54587 17.7869 1.63242 16.5734 1.22859 15.16L-0.694453 15.7095C-0.154688 17.5986 1.06625 19.2207 2.73238 20.262L3.79238 18.566ZM4 22.5305C4 24.3277 6.18603 25.2129 7.43648 23.9221L6 22.5305H6H4ZM21 13C21 16.866 17.866 20 14 20V22C18.9706 22 23 17.9706 23 13H21ZM14 1C17.866 1 21 4.13401 21 8H23C23 3.02944 18.9706 -1 14 -1V1ZM8 -1C3.02944 -1 -1 3.02944 -1 8H1C1 4.13401 4.13401 1 8 1V-1Z" fill="url(#paint0_linear)" mask="url(#path-1-inside-1)"/>
<path d="M5.1037 10C3.06702 7.62387 4.24702 6.03991 5.4658 5.30922C5.8305 5.09058 6.28603 5.21881 6.55824 5.54548L8.05295 7.33927C8.36477 7.71348 8.3398 8.26372 7.99537 8.60814C7.75351 8.85 7.65663 9.20634 7.77748 9.52632C8.57536 11.6389 10.2025 12.6002 11.2199 12.9083C11.4631 12.9819 11.7212 12.9216 11.9325 12.7806L12.5488 12.3698C12.8847 12.1459 13.3223 12.1459 13.6582 12.3698L15.369 13.5103C15.7886 13.7901 15.9343 14.3385 15.7087 14.7896L15.6035 15C14.4035 17 12.7702 16.5 12.1035 16C10.7702 15.1667 7.5037 12.8 5.1037 10Z" stroke="url(#paint1_linear)"/>
<path d="M11.1176 8.11537C12.1461 7.67748 13.5886 8.66679 13.4912 10.2638" stroke="black" stroke-linecap="round"/>
<path d="M11.1176 8.11537C12.1461 7.67748 13.5886 8.66679 13.4912 10.2638" stroke="url(#paint2_linear)" stroke-linecap="round"/>
<path d="M10.2255 6.31548C12.2787 5.50412 15.1707 7.36674 14.9885 10.3545" stroke="black" stroke-linecap="round"/>
<path d="M10.2255 6.31548C12.2787 5.50412 15.1707 7.36674 14.9885 10.3545" stroke="url(#paint3_linear)" stroke-linecap="round"/>
<path d="M9.34165 4.3868C12.6211 3.18192 17.2585 5.99411 16.9852 10.4758" stroke="black" stroke-linecap="round"/>
<path d="M9.34165 4.3868C12.6211 3.18192 17.2585 5.99411 16.9852 10.4758" stroke="url(#paint4_linear)" stroke-linecap="round"/>
<defs>
<linearGradient id="paint0_linear" x1="17.4348" y1="-2.38283e-07" x2="5.56522" y2="19.6304" gradientUnits="userSpaceOnUse">
<stop stop-color="#16A1D7"/>
<stop offset="1" stop-color="#2163B3"/>
</linearGradient>
<linearGradient id="paint1_linear" x1="13.5919" y1="5" x2="8.663" y2="14.7944" gradientUnits="userSpaceOnUse">
<stop stop-color="#16A1D7"/>
<stop offset="1" stop-color="#2163B3"/>
</linearGradient>
<linearGradient id="paint2_linear" x1="13.1035" y1="8.09812" x2="12.1252" y2="9.94134" gradientUnits="userSpaceOnUse">
<stop stop-color="#16A1D7"/>
<stop offset="1" stop-color="#2163B3"/>
</linearGradient>
<linearGradient id="paint3_linear" x1="14.1963" y1="6.29878" x2="12.4325" y2="9.82918" gradientUnits="userSpaceOnUse">
<stop stop-color="#16A1D7"/>
<stop offset="1" stop-color="#2163B3"/>
</linearGradient>
<linearGradient id="paint4_linear" x1="15.6934" y1="4.38586" x2="13.1449" y2="9.79069" gradientUnits="userSpaceOnUse">
<stop stop-color="#16A1D7"/>
<stop offset="1" stop-color="#2163B3"/>
</linearGradient>
</defs>
</svg>
