<svg width="24" height="24" viewBox="0 0 24 24" fill="none" xmlns="http://www.w3.org/2000/svg">
<mask id="path-1-inside-1" fill="white">
<path d="M17.1122 1.75956L16.3581 1.43985C10.2012 -1.1702 3.11008 1.87478 0.762827 8.13661L0.574878 8.63801C0.480791 8.88901 0.412785 9.14902 0.371934 9.41395L0.215525 10.4283C-0.0746156 12.3099 0.183097 14.2133 0.927524 15.9228C1.63298 17.5429 1.91262 19.4282 1.05968 20.9757V20.9757C0.59135 21.8254 1.4858 22.7772 2.36291 22.3625L5.48153 20.8879L7.97975 21.8881C13.6586 24.6569 20.5041 22.0831 22.97 16.2663C25.353 10.645 22.7336 4.14256 17.1122 1.75956Z"/>
</mask>
<path d="M16.3581 1.43985L16.7484 0.519167L16.7484 0.519166L16.3581 1.43985ZM17.1122 1.75956L16.7219 2.68025L16.7219 2.68025L17.1122 1.75956ZM7.97975 21.8881L8.418 20.9892L8.38524 20.9732L8.35141 20.9597L7.97975 21.8881ZM5.48153 20.8879L5.85319 19.9595L5.44833 19.7975L5.05408 19.9839L5.48153 20.8879ZM2.36291 22.3625L2.79036 23.2665L2.79036 23.2665L2.36291 22.3625ZM0.215525 10.4283L-0.772794 10.2759L-0.772794 10.2759L0.215525 10.4283ZM0.371934 9.41395L1.36025 9.56634L1.36025 9.56634L0.371934 9.41395ZM0.574878 8.63801L-0.361497 8.28701L-0.361497 8.28701L0.574878 8.63801ZM0.762827 8.13661L1.6992 8.48761L1.6992 8.48761L0.762827 8.13661ZM22.97 16.2663L22.0493 15.876L22.97 16.2663ZM15.9678 2.36054L16.7219 2.68025L17.5025 0.83887L16.7484 0.519167L15.9678 2.36054ZM8.35141 20.9597L5.85319 19.9595L5.10986 21.8163L7.60808 22.8164L8.35141 20.9597ZM2.79036 23.2665L5.90898 21.792L5.05408 19.9839L1.93546 21.4584L2.79036 23.2665ZM1.20384 10.5807L1.36025 9.56634L-0.616385 9.26155L-0.772794 10.2759L1.20384 10.5807ZM1.51125 8.98901L1.6992 8.48761L-0.173548 7.78561L-0.361497 8.28701L1.51125 8.98901ZM1.36025 9.56634C1.39065 9.36923 1.44125 9.17576 1.51125 8.98901L-0.361497 8.28701C-0.479666 8.60225 -0.565079 8.92882 -0.616385 9.26155L1.36025 9.56634ZM1.84437 15.5236C1.17463 13.9856 0.942843 12.2733 1.20384 10.5807L-0.772794 10.2759C-1.09207 12.3465 -0.808439 14.441 0.0106782 16.3221L1.84437 15.5236ZM0.1839 20.493C-0.752768 22.1924 1.03614 24.0959 2.79036 23.2665L1.93546 21.4584L1.93546 21.4584L0.1839 20.493ZM22.0493 15.876C19.8063 21.167 13.5801 23.5061 8.418 20.9892L7.54149 22.7869C13.737 25.8077 21.2019 22.9992 23.8907 16.6566L22.0493 15.876ZM16.7219 2.68025C21.8332 4.84701 24.2174 10.7615 22.0493 15.876L23.8907 16.6566C26.4885 10.5284 23.6339 3.4381 17.5025 0.83887L16.7219 2.68025ZM16.7484 0.519166C10.0677 -2.31292 2.37338 0.991088 -0.173548 7.78561L1.6992 8.48761C3.84678 2.75847 10.3346 -0.0274778 15.9678 2.36054L16.7484 0.519166ZM1.93546 21.4584C3.00575 19.5166 2.60428 17.2687 1.84437 15.5236L0.0106782 16.3221C0.661672 17.8171 0.819482 19.3399 0.1839 20.493L1.93546 21.4584Z" fill="url(#paint0_linear)" mask="url(#path-1-inside-1)"/>
<path d="M6.27615 10.7883C3.84366 8.21637 5.37803 6.52978 6.83266 5.79908C7.18657 5.6213 7.60578 5.73497 7.87385 6.02652L9.67866 7.98948C10.0345 8.37651 10.007 8.97931 9.61747 9.33238C9.34333 9.58083 9.23323 9.96922 9.37662 10.3103C10.3263 12.5692 12.2753 13.5663 13.4407 13.8608C13.6671 13.918 13.9038 13.8671 14.1037 13.7464L15.0123 13.1974C15.3303 13.0052 15.7286 13.0052 16.0466 13.1974L18.1766 14.4843C18.6362 14.762 18.7945 15.3531 18.5351 15.8233L18.4212 16.0298C17.0331 18.1264 15.1439 17.6022 14.3728 17.0781C12.8306 16.2045 9.05221 13.7235 6.27615 10.7883Z" stroke="url(#paint1_linear)"/>
<defs>
<linearGradient id="paint0_linear" x1="22.6786" y1="4.1193" x2="2.5925" y2="18.8386" gradientUnits="userSpaceOnUse">
<stop stop-color="#16A1D7"/>
<stop offset="1" stop-color="#2163B3"/>
</linearGradient>
<linearGradient id="paint1_linear" x1="16.0944" y1="5.54687" x2="11.2363" y2="16.1987" gradientUnits="userSpaceOnUse">
<stop stop-color="#16A1D7"/>
<stop offset="1" stop-color="#2163B3"/>
</linearGradient>
</defs>
</svg>
