<svg width="33" height="34" viewBox="0 0 33 34" fill="none" xmlns="http://www.w3.org/2000/svg">
<mask id="path-1-inside-1" fill="white">
<path d="M22.3355 5.38059L21.8301 5.16636C15.6897 2.56331 8.60173 5.4309 5.99868 11.5713L5.29126 13.24C5.19182 13.4746 5.11528 13.7209 5.06377 13.9704C4.39565 17.2071 5.08522 20.6092 6.98188 23.3157L6.01757 25.5905C5.66685 26.4178 6.50042 27.2519 7.32796 26.9017L10.6843 25.4815L13.3375 26.6062C19.1988 29.0909 25.9645 26.3537 28.4493 20.4924C30.934 14.6311 28.1967 7.86532 22.3355 5.38059Z"/>
</mask>
<path d="M10.6843 25.4815L11.0746 24.5608L10.6846 24.3955L10.2946 24.5605L10.6843 25.4815ZM6.98188 23.3157L7.90256 23.706L8.11889 23.1957L7.80081 22.7419L6.98188 23.3157ZM7.32796 26.9017L6.93825 25.9808L7.32796 26.9017ZM5.06377 13.9704L6.04313 14.1726L5.06377 13.9704ZM21.4398 6.08704L21.9452 6.30128L22.7257 4.4599L22.2204 4.24567L21.4398 6.08704ZM13.7278 25.6855L11.0746 24.5608L10.294 26.4021L12.9472 27.5269L13.7278 25.6855ZM6.06119 22.9254L5.09688 25.2002L6.93825 25.9808L7.90256 23.706L6.06119 22.9254ZM7.71767 27.8227L11.074 26.4024L10.2946 24.5605L6.93825 25.9808L7.71767 27.8227ZM6.21195 13.6303L6.91937 11.9616L5.078 11.181L4.37057 12.8497L6.21195 13.6303ZM6.04313 14.1726C6.08145 13.9869 6.13846 13.8037 6.21195 13.6303L4.37057 12.8497C4.24518 13.1456 4.14911 13.4549 4.08442 13.7683L6.04313 14.1726ZM7.80081 22.7419C6.06393 20.2633 5.43008 17.1425 6.04313 14.1726L4.08442 13.7683C3.36122 17.2718 4.10652 20.9551 6.16294 23.8896L7.80081 22.7419ZM5.09688 25.2002C4.39545 26.8548 6.06259 28.523 7.71767 27.8227L6.93825 25.9808L6.93825 25.9808L5.09688 25.2002ZM27.5286 20.1021C25.2594 25.4549 19.0806 27.9547 13.7278 25.6855L12.9472 27.5269C19.3169 30.2272 26.6697 27.2525 29.37 20.8827L27.5286 20.1021ZM21.9452 6.30128C27.298 8.57045 29.7977 14.7493 27.5286 20.1021L29.37 20.8827C32.0702 14.5129 29.0955 7.16019 22.7257 4.4599L21.9452 6.30128ZM22.2204 4.24567C15.5715 1.42707 7.8966 4.53212 5.078 11.181L6.91937 11.9616C9.30686 6.32968 15.8079 3.69955 21.4398 6.08704L22.2204 4.24567Z" fill="url(#paint0_linear)" mask="url(#path-1-inside-1)"/>
<defs>
<linearGradient id="paint0_linear" x1="28.334" y1="7.92351" x2="7.92576" y2="22.679" gradientUnits="userSpaceOnUse">
<stop stop-color="#16A1D7"/>
<stop offset="1" stop-color="#2163B3"/>
</linearGradient>
</defs>
</svg>
