<svg width="16" height="14" viewBox="0 0 16 14" fill="none" xmlns="http://www.w3.org/2000/svg">
<path d="M2.22488 6.24047C-0.207607 3.66852 1.32676 1.98193 2.78139 1.25123C3.13531 1.07345 3.55451 1.18712 3.82258 1.47867L5.62739 3.44163C5.98324 3.82866 5.95577 4.43146 5.5662 4.78453C5.29206 5.03298 5.18196 5.42136 5.32535 5.76242C6.27506 8.02133 8.22398 9.01843 9.38947 9.31293C9.61584 9.37014 9.85254 9.31925 10.0524 9.19851L10.961 8.6495C11.279 8.45738 11.6773 8.45737 11.9953 8.6495L14.1254 9.93646C14.585 10.2142 14.7432 10.8053 14.4838 11.2754L14.3699 11.4819C12.9819 13.5785 11.0926 13.0544 10.3215 12.5302C8.77931 11.6566 5.00094 9.17569 2.22488 6.24047Z" stroke="url(#paint0_linear)"/>
<defs>
<linearGradient id="paint0_linear" x1="12.0431" y1="0.999023" x2="7.18501" y2="11.6509" gradientUnits="userSpaceOnUse">
<stop stop-color="#16A1D7"/>
<stop offset="1" stop-color="#2163B3"/>
</linearGradient>
</defs>
</svg>
