<svg width="348" height="243" viewBox="0 0 348 243" fill="none" xmlns="http://www.w3.org/2000/svg">
<path d="M31.7394 80.661L1.49989 78M31.5043 143.424L1 146.5M32.9147 180.8L1 185.5M31.5043 44.2253L1.49989 40" stroke="url(#paint0_linear)" stroke-linecap="round"/>
<path d="M67.2348 7.32008L106.491 16.7416M67.2348 7.32008C64.4923 6.22309 56.8447 4.12315 48.1942 4.49926C39.5437 4.87537 33.1498 6.53652 31.0342 7.32008L31.3776 42.5804M67.2348 7.32008V78.3109M131.879 22.8346L169.02 24.245M131.879 22.8346V85.1279M131.879 22.8346L106.491 16.7416M169.02 24.245L197.933 19.8074M169.02 24.245V85.1279M317.583 1.44336L328.866 7.32008V80.8967M317.583 1.44336L285.144 6.42221M317.583 1.44336V78.781M328.866 80.8967L296.662 82.3071L285.144 80.8967M328.866 80.8967L317.583 78.781M285.144 80.8967V67.4977M285.144 80.8967L317.583 78.781M285.144 6.42221V48.4571M285.144 6.42221L256.7 10.7877M230.843 14.7564V53.3936M230.843 14.7564L256.7 10.7877M230.843 14.7564L197.933 19.8074M230.843 53.3936L256.7 51.0429M230.843 53.3936L225.201 57.6248M285.144 48.4571L257.993 50.9254L256.7 51.0429M285.144 48.4571V64.4418M285.144 48.4571L275.271 57.6248V63.1081M256.7 51.0429V10.7877M197.933 19.8074V83.9525M197.933 83.9525L230.843 82.3071M197.933 83.9525L169.02 85.1279M169.02 85.1279H131.879M131.879 85.1279L106.491 83.0123M106.491 16.7416V83.0123M106.491 83.0123L67.2348 80.6616M67.2348 80.6616L54.306 82.3071M67.2348 80.6616V79.4862M230.843 82.3071V71.964M230.843 82.3071L243.301 83.9525M230.843 71.964H225.554M230.843 71.964L243.301 71.1292M243.301 83.9525V71.964V71.1292M243.301 83.9525L169.02 87.2435H131.879L54.306 82.3071M54.306 82.3071L31.7394 80.6616V80.1914M173.251 28.0061L193.702 25.1853V28.0061M173.251 28.0061L185.474 28.9464M173.251 28.0061V53.8637M225.201 57.6248L220.265 61.1509V66.5574H222.38M225.201 57.6248V55.5092M222.38 66.5574L220.265 71.964H225.554M222.38 66.5574L275.271 63.1081M225.554 71.964L225.201 77.3706L202.87 78.781V56.9196M276.446 63.0314V68.9081M276.446 63.0314L285.144 64.4418M276.446 63.0314L275.271 63.1081M276.446 68.9081L243.301 71.1292M276.446 68.9081L285.144 67.4977M285.144 67.4977V64.4418M73.5817 51.0429V74.7849L86.0403 75.9269M73.5817 51.0429L86.0403 53.3936M73.5817 51.0429V46.1065M86.0403 53.3936L101.79 51.0429M86.0403 53.3936V75.9269M101.79 51.0429V77.3706L86.0403 75.9269M101.79 51.0429L73.5817 46.1065M101.79 51.0429V49.6325M73.5817 46.1065V44.2259M101.79 49.6325V20.719L97.5587 19.6965M101.79 49.6325L86.0403 46.6138M73.5817 44.2259L86.0403 46.6138M73.5817 44.2259V18.6034M86.0403 46.6138V21.4242M86.0403 21.4242L73.5817 18.6034M86.0403 21.4242L97.5587 19.6965M73.5817 18.6034V13.902L97.5587 19.6965M185.474 28.9464L193.702 28.0061M185.474 28.9464V53.3936M193.702 28.0061V52.4533M173.251 53.8637L193.702 52.4533M173.251 53.8637V55.0391M193.702 52.4533V53.8637M193.702 53.8637L173.251 55.0391M193.702 53.8637V58.33M173.251 55.0391V56.2144M173.251 56.2144V79.7213L185.474 79.1593M173.251 56.2144L185.474 58.8002M185.474 58.8002L193.702 58.33M185.474 58.8002V79.1593M193.702 58.33V78.781L185.474 79.1593M202.87 53.3936L225.201 51.9832M202.87 53.3936V51.9832M202.87 53.3936V56.9196M225.201 51.9832V50.3377M225.201 51.9832V55.5092M225.201 50.3377L202.87 51.9832M225.201 50.3377V23.5398M202.87 51.9832V26.8308M202.87 56.9196L225.201 55.5092M202.87 26.8308V24.245L225.201 20.719V23.5398M202.87 26.8308L225.201 23.5398M48.1942 12.7267L31.0342 8.96556C33.1498 8.182 39.5437 6.52085 48.1942 6.14474C56.8447 5.76863 64.4923 7.86858 67.2348 8.96556L48.1942 12.7267ZM48.1942 12.7267V40.2297M48.1942 40.2297C43.7218 40.2297 34.0971 40.6999 31.3776 42.5804M48.1942 40.2297C52.6666 40.2297 64.5153 40.6999 67.2348 42.5804M31.3776 42.5804L31.7302 78.781M48.2102 41.8752C43.7378 41.8752 34.1131 42.3454 31.3937 44.2259L48.2102 46.6138M48.1782 41.8752C52.6506 41.8752 64.5153 42.1103 67.2348 43.9908L48.2102 46.6138M48.2102 46.6138V78.3109M48.2102 78.3109L31.7302 78.781M48.2102 78.3109H67.2348M31.7302 78.781L31.7394 79.7213V80.1914M67.2348 78.3109V79.4862M67.2348 79.4862L31.7394 80.1914M110.487 22.8346V78.781L127.647 79.7213V26.5957L110.487 22.8346ZM137.05 28.0061V80.6616H163.613V28.9464L137.05 28.0061ZM235.779 18.8385L251.764 17.193V46.1065L235.779 47.2818V18.8385ZM262.107 15.7826L279.737 12.9617V43.5207L262.107 44.9311V15.7826ZM291.726 10.7877L310.766 8.7305V73.1394H291.726V10.7877Z" stroke="black"/>
<path d="M131.878 22.8346L169.019 24.245V85.1279H131.878L106.491 83.0123V16.7416L131.878 22.8346Z" fill="url(#paint1_linear)"/>
<path d="M285.143 6.42221L317.583 1.44336V78.781L285.143 80.8967V67.4977V64.4418V48.4571L257.993 50.9254L256.7 51.0429L230.842 53.3936V14.7564L256.7 10.7877L285.143 6.42221Z" fill="url(#paint2_linear)"/>
<path d="M131.878 22.8346L169.019 24.245V85.1279H131.878M131.878 22.8346V85.1279M131.878 22.8346L106.491 16.7416V83.0123M317.583 1.44336L328.866 7.32008M317.583 1.44336L285.143 6.42221M317.583 1.44336V78.781L285.143 80.8967V67.4977V64.4418V48.4571M285.143 6.42221V48.4571M285.143 6.42221L256.7 10.7877M285.143 48.4571L257.993 50.9254L256.7 51.0429M256.7 51.0429L230.842 53.3936V14.7564L256.7 10.7877M256.7 51.0429V10.7877M131.878 85.1279L106.491 83.0123M106.491 83.0123L67.2344 80.6616V79.4862V78.3109M230.842 82.3071V71.964M169.019 87.2435H131.878M110.487 22.8346V78.781L127.647 79.7213V26.5957L110.487 22.8346ZM137.05 28.0061V80.6616H163.613V28.9464L137.05 28.0061ZM235.779 18.8385L251.763 17.193V46.1065L235.779 47.2818V18.8385ZM262.107 15.7826L279.737 12.9617V43.5207L262.107 44.9311V15.7826ZM291.725 10.7877L310.766 8.7305V73.1394H291.725V10.7877Z" stroke="black"/>
<path d="M31.0342 143.425V146.716C31.5307 146.754 32.08 146.793 32.6797 146.834M31.0342 143.425C39.2616 144.052 62.0163 145.118 87.2157 144.365M31.0342 143.425L99.4392 139.045M87.2157 144.365L152.565 140.134M87.2157 144.365V165.051M152.565 140.134V142.015M152.565 140.134L221.675 143.521M152.565 142.015L125.336 144.365M152.565 142.015L216.739 145.553M152.565 142.015V173.866M306.065 150.477L327.221 145.776M306.065 150.477V147.656M306.065 150.477V231.576M306.065 150.477L273.155 148.663M327.221 145.776V143.425M327.221 145.776V218.647L324.165 220.763M327.221 143.425L306.065 147.656M327.221 143.425L289.375 141.797M306.065 147.656L271.98 145.986M32.6797 146.834V182.858M32.6797 146.834C36.547 147.095 42.5045 147.402 49.8397 147.622M87.2157 223.584L77.3428 225.229H59.7126L49.8397 222.911M87.2157 223.584V185.737M87.2157 223.584V233.927M87.2157 223.584L125.336 213.162M32.6797 217.237L59.7126 223.584H77.3428L87.2157 221.938L49.8397 213.241M32.6797 217.237L49.8397 213.241M32.6797 217.237V182.858M49.8397 213.241V185.502M32.6797 182.858V218.882L49.8397 222.911M32.6797 182.858L59.7126 186.913H77.3428L87.2157 185.737M87.2157 185.737V182.917M49.8397 178.685L32.6797 180.801L59.7126 184.856H77.3428L87.2157 183.68L49.8397 178.685ZM49.8397 178.685V147.622M49.8397 147.622C60.2141 147.934 73.3445 148.07 87.2157 147.656L125.336 144.365M87.2157 233.927L49.8397 225.229V222.911M87.2157 233.927L152.565 214.651M152.565 214.651L303.479 241.684M152.565 214.651V205.718M303.479 241.684L324.165 228.52V220.763M303.479 241.684V231.14M324.165 220.763L306.065 231.576M306.065 231.576L303.479 231.14M152.565 205.718L125.336 213.162M152.565 205.718L216.739 216.529M152.565 205.718V173.866M303.479 231.14L273.155 226.032M125.336 144.365V160.35M125.336 213.162V177.275M87.2157 165.051L125.336 160.35M87.2157 165.051V182.917M125.336 160.35V177.275M87.2157 182.917L125.336 177.275M216.739 145.553L273.155 148.663M216.739 145.553V157.529M216.739 216.529L273.155 226.032M216.739 216.529V203.603M152.565 173.866L216.739 180.566M216.739 180.566V157.529M216.739 180.566V203.603M273.155 148.663V161.29M273.155 226.032V211.83M216.739 157.529L221.675 157.858M273.155 161.29L267.278 160.898M273.155 161.29V211.83M221.675 157.858V198.196L267.278 204.308V160.898M221.675 157.858L267.278 160.898M225.436 162.591L223.556 162.466V159.88L265.868 162.466V165.286L264.458 165.192M225.436 162.591V196.316L264.458 201.722V165.192M225.436 162.591L264.458 165.192M216.739 203.603L273.155 211.83M99.4392 139.045L108.137 138.489V134.022M99.4392 139.045L100.615 140.134L124.827 140.604L149.274 139.194L116.834 137.548M116.834 137.548L113.073 137.783V134.022M116.834 137.548L146.923 135.668L242.596 139.784M113.073 130.731L125.336 125.09C125.793 125.011 126.754 125.184 126.942 126.5C127.13 127.816 125.95 127.832 125.336 127.675L113.073 132.847V134.022M113.073 130.731H108.137M113.073 130.731V126.97M108.137 134.022H113.073M108.137 134.022V130.731M108.137 130.731V126.97M108.137 126.97V124.62L116.129 122.504H117.775L117.54 123.209L113.073 125.09V126.97M108.137 126.97H113.073M221.675 143.521L242.596 139.784M221.675 143.521L271.98 145.986M242.596 139.784L289.375 141.797M271.98 145.986L289.375 141.797M93.0924 187.618L121.301 182.917V208.774L93.0924 216.061V187.618ZM93.0924 170.693L121.301 166.462V171.633L93.0924 175.865V170.693ZM93.0924 153.298L121.301 151.182V155.884L93.0924 158.705V153.298ZM129.293 149.772L146.923 148.361V201.722L129.293 206.659V149.772ZM158.442 147.656L211.567 151.182V175.159L158.442 169.753V147.656ZM158.442 180.566L211.567 186.443V209.95L158.442 201.722V180.566ZM279.032 155.414V220.763L298.778 224.054V156.824L279.032 155.414ZM221.675 209.95L267.278 216.529V218.647L221.675 211.83V209.95Z" stroke="black"/>
<path d="M87.2153 223.584V185.737V182.917V165.051V147.656L125.336 144.365L152.564 142.015L216.738 145.553L273.155 148.663L306.064 150.477V231.576L303.479 231.14L273.155 226.032V211.83V161.29V148.663L216.738 145.553V157.529V180.566V203.603V216.529L152.564 205.718L125.336 213.162L87.2153 223.584Z" fill="url(#paint3_linear)"/>
<path d="M87.2153 147.656L125.336 144.365M87.2153 144.365V165.051M152.564 142.015L125.336 144.365M152.564 142.015L216.738 145.553M152.564 142.015V173.866M87.2153 223.584V185.737V182.917M87.2153 223.584V233.927M87.2153 223.584L125.336 213.162M152.564 205.718L125.336 213.162M152.564 205.718L216.738 216.529V203.603V180.566M152.564 205.718V173.866M125.336 144.365V160.35M125.336 213.162V177.275M87.2153 165.051L125.336 160.35M87.2153 165.051V182.917M125.336 160.35V177.275M87.2153 182.917L125.336 177.275M216.738 145.553L273.155 148.663M216.738 145.553V157.529V180.566M152.564 173.866L216.738 180.566M273.155 148.663L306.064 150.477V231.576L303.479 231.14L273.155 226.032V211.83V161.29V148.663ZM93.0921 187.618L121.3 182.917V208.774L93.0921 216.061V187.618ZM93.0921 170.693L121.3 166.462V171.633L93.0921 175.865V170.693ZM93.0921 153.298L121.3 151.182V155.884L93.0921 158.705V153.298ZM129.293 149.772L146.923 148.362V201.722L129.293 206.659V149.772ZM158.441 147.656L211.567 151.182V175.159L158.441 169.753V147.656ZM158.441 180.566L211.567 186.443V209.95L158.441 201.722V180.566ZM279.032 155.414V220.763L298.777 224.054V156.824L279.032 155.414Z" stroke="black"/>
<path d="M130.939 71.9646C132.003 73.3954 133.493 77.3732 130.939 81.8375M135.17 71.9646V81.8375M195.112 71.0243C194.048 72.4552 193.467 77.8413 195.112 80.8972M200.049 71.0243C198.984 72.4552 198.403 77.8413 200.049 80.8972M253.88 37.6445C252.815 39.0754 252.234 44.4615 253.88 47.5174M258.816 37.6445C257.752 39.0754 257.171 44.4615 258.816 47.5174M287.965 64.6775C286.9 66.1083 286.319 71.4945 287.965 74.5503M224.496 63.5021L231.313 63.032M275.741 154.004C274.677 155.434 274.096 160.821 275.741 163.877M127.883 148.832C128.947 150.263 130.437 154.241 127.883 158.705M123.886 180.331C124.951 181.762 126.441 185.74 123.886 190.204M102.965 155.179C105.159 155.257 110.111 155.179 112.368 154.239M102.965 171.399C105.159 171.477 110.111 171.399 112.368 170.458M164.083 153.298C165.024 153.534 168.22 154.004 173.486 154.004M195.112 155.179C196.053 155.414 199.25 155.884 204.515 155.884M195.112 190.204C196.053 190.439 199.25 190.909 204.515 190.909M164.083 185.973C165.024 186.208 168.22 186.678 173.486 186.678" stroke="black" stroke-width="2" stroke-linecap="round"/>
<path d="M146.688 10.1409V22.8346M146.688 88.1838V134.962M50.0746 225.229L1.99951 236M31.2691 7.55513L1.49951 1M328.631 7.32006L347.5 4.5M324.165 228.285L345.5 233.5M328.631 80.8966L347.5 79.5" stroke="url(#paint4_linear)" stroke-linecap="round"/>
<path d="M169.02 24.2446L173.016 23.5393L230.843 14.8418V20.0133V53.158L225.201 57.3893V20.7185L205.925 23.5393L202.869 24.2446V78.7805L193.702 79.0693V25.1848L173.016 28.0057V79.7208L202.869 78.7805L225.201 77.6052L225.436 72.1986H230.843V77.1351V82.0715L173.486 84.8923L169.255 85.1274L169.02 24.2446Z" fill="#B6B6B6"/>
<path d="M169.02 24.2446L173.016 23.5393L230.843 14.8418V20.0133V53.158L225.201 57.3893V20.7185L205.925 23.5393L202.869 24.2446V78.7805L193.702 79.0693V25.1848L173.016 28.0057V79.7208L202.869 78.7805L225.201 77.6052L225.436 72.1986H230.843V77.1351V82.0715L173.486 84.8923L169.255 85.1274L169.02 24.2446Z" fill="url(#paint5_linear)"/>
<path d="M67.2344 7.55469L73.5812 8.9651L102.025 15.7821V20.4835L73.5812 13.9015V74.7844L102.025 77.3702V15.7821L106.491 16.7224V77.8403V82.7767L67.2344 80.191V7.55469Z" fill="#B6B6B6"/>
<path d="M104.846 69.1426C106.021 70.7097 107.667 75.0663 104.846 79.9557" stroke="black" stroke-width="2" stroke-linecap="round"/>
<circle cx="221.91" cy="152.593" r="3.02603" stroke="black"/>
<path d="M234.604 155.649V157.059L253.174 158.234V157.059M234.604 155.649V149.302L253.174 150.242V157.059M234.604 155.649L253.174 157.059" stroke="black"/>
<defs>
<linearGradient id="paint0_linear" x1="65" y1="119.5" x2="-3" y2="118" gradientUnits="userSpaceOnUse">
<stop/>
<stop offset="1" stop-opacity="0"/>
</linearGradient>
<linearGradient id="paint1_linear" x1="110.722" y1="53.8637" x2="274.095" y2="49.1624" gradientUnits="userSpaceOnUse">
<stop stop-color="#B6B6B6"/>
<stop offset="0.349365" stop-color="#878787"/>
<stop offset="1" stop-color="#B6B6B6"/>
</linearGradient>
<linearGradient id="paint2_linear" x1="110.722" y1="53.8637" x2="274.095" y2="49.1624" gradientUnits="userSpaceOnUse">
<stop stop-color="#B6B6B6"/>
<stop offset="0.349365" stop-color="#878787"/>
<stop offset="1" stop-color="#B6B6B6"/>
</linearGradient>
<linearGradient id="paint3_linear" x1="70.2904" y1="187.853" x2="295.721" y2="191.849" gradientUnits="userSpaceOnUse">
<stop stop-color="#FFF9BE"/>
<stop offset="0.377191" stop-color="#FDF079"/>
<stop offset="1" stop-color="#FFF9BE"/>
</linearGradient>
<linearGradient id="paint4_linear" x1="417.722" y1="122.739" x2="-107.186" y2="126.5" gradientUnits="userSpaceOnUse">
<stop offset="0.135776" stop-opacity="0"/>
<stop offset="0.206218"/>
<stop offset="0.520949"/>
<stop offset="0.790804" stop-opacity="0"/>
</linearGradient>
<linearGradient id="paint5_linear" x1="179.296" y1="57.7834" x2="292.19" y2="60.419" gradientUnits="userSpaceOnUse">
<stop stop-color="#878787"/>
<stop offset="1" stop-color="#B6B6B6"/>
</linearGradient>
</defs>
</svg>
